<svg id="logosandtypes_com" xmlns="http://www.w3.org/2000/svg" viewBox="0 0 150 150.2"><style>.st1{fill-rule:evenodd;clip-rule:evenodd;fill:#bfa161}</style><g id="Layer_3_2_"><g id="Layer_2_1_"><path id="Layer_3" d="M0 .2h150v150H0V.2z" fill="none"/></g></g><g id="Reliance"><path id="path262" class="st1" d="M112.7 123c-4.4 3.1-10.1 3.6-14.6 1.5 0 0-1.2-.5-2.3-1.7-1-1.2-25.6-27.7-25.6-27.7l-.1-.1c7.6 1.3 16-2.2 20.3-8.5 4.3-6 4.1-14.6.1-20.7-4.9-6.6-14.3-8.7-22.3-7.7-13.8 2-23.7 13.6-26.8 25.9-3.2 13.9-.9 27.1 4.1 39.4 1.1 2.6 2.7 5.3 4.5 7.7-14.5-6-27.3-17.2-34-32.1-7.5-16.1-7.3-36.4 1.5-52.8C24.5 33.6 36.8 21.9 52 17c16-6.3 37.4-4.9 53 3.4 18.9 9 33.1 31.3 33.2 51.3.7 20.6-8.9 39.3-25.5 51.3"/><path id="path264" class="st1" d="M59.7 130.8c-7-7.3-12.7-16.7-8.4-26.5 3.8-7.5 7.2-15.2 8.8-23.8.6 9.1 6.4 17.1 9.2 25.8 1.1 4.2 1.1 8.5-.6 12.8-1.9 4.7-4.9 8.7-8.4 12.4l-.6-.7z"/></g></svg>